<?xml version="1.0" encoding="UTF-8"?>
<!DOCTYPE svg PUBLIC "-//W3C//DTD SVG 1.1//EN" "http://www.w3.org/Graphics/SVG/1.1/DTD/svg11.dtd">
<!-- Creator: CorelDRAW X6 -->
<svg xmlns="http://www.w3.org/2000/svg" xml:space="preserve" width="210mm" height="297mm" version="1.1" style="shape-rendering:geometricPrecision; text-rendering:geometricPrecision; image-rendering:optimizeQuality; fill-rule:evenodd; clip-rule:evenodd"
viewBox="0 0 21000 29700"
 xmlns:xlink="http://www.w3.org/1999/xlink">
 <defs>
  <style type="text/css">
   <![CDATA[
    .str0 {stroke:black;stroke-width:52.92;stroke-linecap:round;stroke-linejoin:round}
    .fil0 {fill:none}
   ]]>
  </style>
 </defs>
 <g id="Layer_x0020_1">
  <metadata id="CorelCorpID_0Corel-Layer"/>
  <g id="_1070955568">
   <path class="fil0 str0" d="M8450 16550l0 -1200 0 -1000 0 -1200c0,-276 224,-500 500,-500l1000 0c276,0 500,224 500,500l0 700 1600 0c276,0 500,224 500,500l0 1000c0,276 -224,500 -500,500l-1600 0 0 700c0,276 -224,500 -500,500l-1000 0c-276,0 -500,-224 -500,-500z"/>
   <circle class="fil0 str0" cx="9764" cy="13263" r="300"/>
   <circle class="fil0 str0" cx="9764" cy="14850" r="300"/>
   <circle class="fil0 str0" cx="9764" cy="16438" r="300"/>
   <circle class="fil0 str0" cx="11478" cy="14850" r="300"/>
  </g>
 </g>
</svg>
